<?xml version="1.0" ?><svg height="400px" version="1.1" viewBox="0 0 400 400" width="400px" xmlns="http://www.w3.org/2000/svg" xmlns:xlink="http://www.w3.org/1999/xlink"><title/><desc/><defs><path d="M223.545497,195.232534 L328.885952,195.232534 C331.091879,195.232534 331.454735,196.326282 329.707198,197.667214 L134.053073,347.797854 C132.300708,349.14249 131.422048,348.518322 132.085287,346.42032 L176.696818,205.302212 L71.9469374,205.302212 C69.7410104,205.302212 69.3541628,204.175798 71.0711576,202.795726 L257.761731,52.7390277 C259.483979,51.3547332 260.431733,51.974046 259.8832,54.1044333 L223.545497,195.232534 L223.545497,195.232534 Z" id="path-1"/><filter filterUnits="objectBoundingBox" height="200%" id="filter-2" width="200%" x="-50%" y="-50%"><feOffset dx="0" dy="4" in="SourceAlpha" result="shadowOffsetOuter1"/><feGaussianBlur in="shadowOffsetOuter1" result="shadowBlurOuter1" stdDeviation="2"/><feColorMatrix in="shadowBlurOuter1" type="matrix" values="0 0 0 0 0   0 0 0 0 0   0 0 0 0 0  0 0 0 0.5 0"/></filter></defs><g fill="none" fill-rule="evenodd" id="Page-1" stroke="none" stroke-width="1"><g id="lightning"><path d="M200,400 C310.45695,400 400,310.45695 400,200 C400,89.54305 310.45695,0 200,0 C89.54305,0 0,89.54305 0,200 C0,310.45695 89.54305,400 200,400 Z" fill="#AAD8B0" id="Oval-6"/><g id="Combined-Shape"><use fill="black" fill-opacity="1" filter="url(#filter-2)" xlink:href="#path-1"/><use fill="#FBF0B8" fill-rule="evenodd" xlink:href="#path-1"/></g></g></g></svg>